<?xml version="1.0" standalone="no"?>
<!DOCTYPE svg PUBLIC "-//W3C//DTD SVG 20010904//EN"
 "http://www.w3.org/TR/2001/REC-SVG-20010904/DTD/svg10.dtd">
<svg version="1.0" xmlns="http://www.w3.org/2000/svg"
 width="700.000000pt" height="700.000000pt" viewBox="0 0 700.000000 700.000000"
 preserveAspectRatio="xMidYMid meet">
<metadata>
Created by potrace 1.14, written by Peter Selinger 2001-2017
</metadata>
<g transform="translate(0.000000,700.000000) scale(0.100000,-0.100000)"
fill="#000000" stroke="none">
<path d="M3470 6885 c-14 -8 -31 -17 -39 -21 -8 -4 -91 -52 -185 -107 -94 -54
-195 -112 -224 -129 -30 -16 -107 -60 -172 -98 -65 -38 -349 -202 -632 -365
-282 -162 -520 -299 -528 -305 -13 -8 -122 -71 -225 -130 -16 -10 -86 -50
-155 -90 -69 -40 -246 -142 -395 -228 -148 -85 -281 -162 -295 -171 -14 -9
-34 -21 -45 -27 -20 -11 -20 -24 -23 -1718 -1 -938 2 -1706 6 -1706 5 0 143
-78 308 -173 523 -303 828 -480 849 -491 24 -13 544 -314 565 -327 23 -14 236
-136 283 -162 23 -13 199 -115 390 -225 191 -111 349 -202 352 -202 2 0 40
-22 84 -49 44 -27 88 -52 99 -55 20 -7 29 -2 262 134 69 40 141 81 160 92 116
66 799 461 980 566 118 69 229 132 245 142 30 17 519 299 578 333 18 11 50 29
72 40 22 12 42 24 45 27 3 3 59 36 125 74 158 90 175 100 345 198 l145 84 3
1702 2 1702 -42 26 c-180 107 -1152 664 -1159 664 -5 0 -9 5 -9 10 0 6 -4 10
-10 10 -5 0 -47 22 -92 49 -46 27 -99 58 -118 68 -44 25 -140 81 -160 93 -21
13 -230 134 -288 166 -26 15 -146 84 -267 154 -121 70 -236 137 -255 147 -19
11 -80 46 -135 78 -55 32 -113 66 -130 75 -16 9 -65 38 -108 64 -43 25 -81 46
-83 46 -3 0 -22 11 -42 25 -42 29 -48 30 -82 10z"/>
</g>
</svg>
